<?xml version="1.0" encoding="utf-8"?>
<!-- Generator: Adobe Illustrator 25.1.0, SVG Export Plug-In . SVG Version: 6.00 Build 0)  -->
<svg version="1.1" id="Layer_1" xmlns="http://www.w3.org/2000/svg" xmlns:xlink="http://www.w3.org/1999/xlink" x="0px" y="0px"
	 viewBox="0 0 189.85 73.64" style="enable-background:new 0 0 189.85 73.64;" xml:space="preserve">
<style type="text/css">
	.st0{fill:#FFFFFF;}
</style>
<g>
	<path class="st0" d="M5.1,8.5h2.18v18.7L28.83,8.5h2.72L8.23,28.83L37.54,59.5h-2.99L7.34,31.14V59.5H5.1V8.5z"/>
	<path class="st0" d="M46.55,52.43c-5.15-5.3-7.72-11.5-7.72-18.6c0-7.09,2.61-13.24,7.82-18.43c5.21-5.19,11.47-7.79,18.77-7.79
		c7.3,0,13.53,2.58,18.7,7.75s7.75,11.32,7.75,18.46c0,7.14-2.56,13.35-7.68,18.63c-5.12,5.28-11.24,7.92-18.36,7.92H64.8
		C57.78,60.38,51.69,57.73,46.55,52.43z M89.62,33.97c0-6.69-2.37-12.42-7.11-17.2c-4.74-4.78-10.45-7.17-17.14-7.17
		c-6.69,0-12.41,2.39-17.17,7.17c-4.76,4.78-7.14,10.52-7.14,17.2c0,6.69,2.38,12.43,7.14,17.24c4.76,4.8,10.47,7.21,17.14,7.21
		s12.38-2.4,17.14-7.21S89.62,40.65,89.62,33.97z"/>
	<path class="st0" d="M100.03,8.5h2.18c7.62,0,13.76,2.51,18.43,7.51c4.67,5.01,7,11.02,7,18.02c0,7-2.32,13-6.97,17.98
		c-4.65,4.99-10.8,7.48-18.46,7.48h-2.18V8.5z M102.75,10.54h-0.54v46.85h0.54c6.62,0,12.05-2.29,16.29-6.87
		c4.24-4.58,6.36-10.08,6.36-16.49c0-6.41-2.12-11.93-6.36-16.56C114.79,12.85,109.37,10.54,102.75,10.54z"/>
	<path class="st0" d="M141.47,52.43c-5.15-5.3-7.72-11.5-7.72-18.6c0-7.09,2.61-13.24,7.82-18.43c5.21-5.19,11.47-7.79,18.77-7.79
		c7.3,0,13.53,2.58,18.7,7.75s7.75,11.32,7.75,18.46c0,7.14-2.56,13.35-7.68,18.63c-5.12,5.28-11.24,7.92-18.36,7.92h-1.02
		C152.7,60.38,146.62,57.73,141.47,52.43z M184.55,33.97c0-6.69-2.37-12.42-7.11-17.2c-4.74-4.78-10.45-7.17-17.14-7.17
		s-12.41,2.39-17.17,7.17c-4.76,4.78-7.14,10.52-7.14,17.2c0,6.69,2.38,12.43,7.14,17.24s10.47,7.21,17.14,7.21
		s12.38-2.4,17.13-7.21S184.55,40.65,184.55,33.97z"/>
</g>
</svg>
