<svg width="134" height="35" viewBox="0 0 134 35" fill="none" xmlns="http://www.w3.org/2000/svg">
<g clip-path="url(#clip0)">
<path d="M10.8431 35L6.50586 30.625V4.375L10.8431 0V35Z" fill="#1E3769"/>
<path d="M4.3372 28.4375L0 24.0625V10.9375L4.3372 6.5625V28.4375Z" fill="#1E3769"/>
<path d="M13.0115 28.4375L17.3487 24.0625V10.9375L13.0115 6.5625V28.4375Z" fill="#00B2E3"/>
<path d="M55.5849 16.6974C56.4775 15.9255 56.9291 14.7912 56.9291 13.3191C56.9291 10.2328 54.9288 8.73317 50.8128 8.73317H42.8628V26.2164H51.6312C55.9593 26.2164 58.3415 24.304 58.3415 20.8324C58.3431 18.862 57.3686 17.4098 55.5849 16.6974ZM51.1114 15.7206H45.9255V11.5658H50.9128C53.5937 11.5658 53.8179 12.5059 53.8179 13.4689C53.8179 15.0052 52.9587 15.7206 51.1114 15.7206ZM45.9255 18.5532H51.3841C54.7742 18.5532 55.2318 19.7165 55.2318 20.8554C55.2318 22.65 54.1104 23.3822 51.3599 23.3822H45.9255V18.5532Z" fill="#1E3769"/>
<path d="M82.366 25.5667C82.1811 20.2256 81.6961 14.75 80.9217 9.29115L80.8429 8.7393H78.1015L72.014 19.767L65.8795 8.7393H63.1396L63.0607 9.29115C62.2879 14.7408 61.8014 20.2179 61.6165 25.5667L61.5923 26.2332H64.5868L64.6035 25.608C64.7065 21.8169 65.0217 17.4465 65.4385 13.9979L71.0593 23.8882H72.9414L78.538 14.004C78.9547 17.4572 79.2699 21.8261 79.3715 25.6095L79.3881 26.2362H82.3842L82.366 25.5667Z" fill="#1E3769"/>
<path d="M34.681 16.2312L31.8713 15.6274C29.7255 15.1703 29.0011 14.6277 29.0011 13.4812C29.0011 12.2353 30.4392 11.4924 32.8473 11.4924C34.2006 11.4924 35.7766 11.8409 37.186 12.4463L39.1712 10.5263L38.8014 10.3077C37.0435 9.2728 35.0644 8.74847 32.9185 8.74847C28.751 8.74847 26.0581 10.6257 26.0581 13.5286C26.0581 16.0799 27.7114 17.6468 31.1091 18.3194L34.0202 18.9492C36.7192 19.5041 36.7192 20.6016 36.7192 21.0709C36.7192 22.5721 35.1917 23.4694 32.6321 23.4694C30.8954 23.4694 28.8632 22.9038 27.3083 21.9912L25.364 23.8699L25.6701 24.0916C27.5129 25.42 30.1786 26.2148 32.8003 26.2148C37.0966 26.2148 39.6607 24.2566 39.6607 20.9746C39.6607 18.4096 38.124 16.9466 34.681 16.2312Z" fill="#1E3769"/>
<path d="M93.9907 15.4042C93.0345 15.4042 91.6069 15.8552 90.7416 16.6913V11.1439H89.3914V25.666L89.4823 25.689C90.9386 26.0558 92.7647 26.1873 93.9892 26.1873C96.9398 26.1873 99.1645 23.8699 99.1645 20.7958C99.166 17.6712 96.9898 15.4042 93.9907 15.4042ZM93.9907 24.8467C92.6102 24.8467 91.4024 24.6908 90.7416 24.5486V18.2169C91.219 17.6513 92.2555 16.7448 93.9907 16.7448C96.2169 16.7448 97.7718 18.4111 97.7718 20.7958C97.7718 23.1805 96.2169 24.8467 93.9907 24.8467Z" fill="#00B2E3"/>
<path d="M110.404 22.0003V15.5754H109.394L109.257 16.3245C107.74 15.4761 106.722 15.4042 105.805 15.4042C102.855 15.4042 100.63 17.7216 100.63 20.7958C100.63 23.9708 102.695 26.1873 105.655 26.1873C107.178 26.1873 108.301 25.7302 109.289 24.703L109.589 26.0146H110.859L110.827 25.8678C110.824 25.8479 110.404 23.8164 110.404 22.0003ZM105.657 24.8467C103.483 24.8467 102.024 23.2187 102.024 20.7958C102.024 18.4111 103.579 16.7448 105.805 16.7448C106.664 16.7448 107.919 16.9084 109.053 17.6758V22.757C108.695 24.0655 107.427 24.8467 105.657 24.8467Z" fill="#00B2E3"/>
<path d="M117.835 15.4042C116.706 15.4042 115.333 15.9576 114.463 16.7571L114.316 15.5754H113.235V26.0146H114.586V18.2154C115.063 17.6498 116.075 16.7433 117.663 16.7433C119.734 16.7433 120.699 17.7232 120.699 19.8266V26.0146H122.049V19.504C122.049 16.9359 120.473 15.4042 117.835 15.4042Z" fill="#00B2E3"/>
<path d="M127.6 19.7777L133.485 15.5754H131.404L131.374 15.5953C130.899 15.9132 126.988 18.5441 126.232 19.2105V11.1439H124.88V26.0146H126.232V20.2057C127.003 21.1963 131.496 25.4643 132.04 25.9809L132.075 26.0146H134.001L127.6 19.7777Z" fill="#00B2E3"/>
</g>
<defs>
<clipPath id="clip0">
<rect width="134" height="35" fill="white"/>
</clipPath>
</defs>
</svg>
